<svg width="40" height="40" viewBox="0 0 40 40" fill="none" xmlns="http://www.w3.org/2000/svg">
<rect width="40" height="40" rx="20" fill="white" fill-opacity="0.07"/>
<path d="M21.6667 13.3333V16.6666H16.6667V13.3333M15 13.3333H23.3334L26.6667 16.6666V25C26.6667 25.442 26.4911 25.8659 26.1786 26.1785C25.866 26.4911 25.4421 26.6666 25 26.6666H15C14.558 26.6666 14.1341 26.4911 13.8215 26.1785C13.509 25.8659 13.3334 25.442 13.3334 25V15C13.3334 14.558 13.509 14.134 13.8215 13.8215C14.1341 13.5089 14.558 13.3333 15 13.3333ZM18.3334 21.6666C18.3334 22.1087 18.509 22.5326 18.8215 22.8452C19.1341 23.1577 19.558 23.3333 20 23.3333C20.4421 23.3333 20.866 23.1577 21.1786 22.8452C21.4911 22.5326 21.6667 22.1087 21.6667 21.6666C21.6667 21.2246 21.4911 20.8007 21.1786 20.4881C20.866 20.1756 20.4421 20 20 20C19.558 20 19.1341 20.1756 18.8215 20.4881C18.509 20.8007 18.3334 21.2246 18.3334 21.6666Z" stroke="#EDF0F2" stroke-width="1.67" stroke-linecap="round" stroke-linejoin="round"/>
</svg>
